<svg width="1204" height="251" viewBox="0 0 1204 251" fill="none" xmlns="http://www.w3.org/2000/svg">
<path d="M138.836 42.2187H77V63.2855H97.309V152.403H118.426V63.2855H138.836V42.2187ZM206.685 42.2187H150.658V152.403H206.685V131.285H171.775V107.794H199.662V86.7773H171.775V63.2855H206.685V42.2187ZM265.742 63.2855V89.4548H239.573V63.2855H265.742ZM270.643 42.2187H218.456V152.403H239.573V110.471H265.742V152.403H286.759V103.095L281 97.4875L286.759 91.7282V58.4356L270.643 42.2187ZM345.867 63.2855V89.4548H319.698V63.2855H345.867ZM350.717 42.2187H298.58V152.403H319.698V110.471H345.867V152.403H366.883V103.095L361.124 97.4875L366.883 91.7282V58.4356L350.717 42.2187ZM418.616 82.4326L426.295 112.542H410.533L418.616 82.4326ZM399.822 152.403L404.874 133.66H431.65L436.449 152.403H457.466L429.528 42.2187H408.411L378.705 152.403H399.822ZM517.483 42.2187H481.513L465.347 58.4356V136.236L481.513 152.403H517.483L533.65 136.236V114.816H512.633V131.285H486.464V63.2855H512.633V79.755H533.65V58.4356L517.483 42.2187ZM601.447 42.2187H545.471V152.403H601.447V131.285H566.589V107.794H594.476V86.7773H566.589V63.2855H601.447V42.2187Z" fill="#393458"/>
<path d="M653.378 162.994L668.323 138.284L643.301 96.9177L603.333 162.994H653.378Z" fill="#393458"/>
<path d="M722.023 144.919H722.008L733.44 163.794H783.469L693.458 15L668.435 56.3664L722.023 144.919Z" fill="#860F48"/>
<path d="M682.216 162.622H703.561L692.888 144.983L682.216 162.622Z" fill="#393458"/>
<path d="M834.79 63.2855V89.4548H808.722V63.2855H834.79ZM839.741 42.2187H787.604V152.403H808.722V110.471H839.741L855.907 94.3553V58.4356L839.741 42.2187ZM914.965 63.2855V131.285H888.846V63.2855H914.965ZM919.866 42.2187H883.845L867.729 58.4356V136.236L883.845 152.403H919.866L936.032 136.236V58.4356L919.866 42.2187ZM947.854 42.2187V152.403H968.921V42.2187H947.854ZM1032.37 42.2187V104.964L1004.49 42.2187H980.742V152.403H1001.86V89.6064L1029.75 152.403H1053.44V42.2187H1032.37ZM1127.1 42.2187H1065.26V63.2855H1085.62V152.403H1106.74V63.2855H1127.1V42.2187Z" fill="#860F48"/>
<path d="M326.642 210.825H102.233V215.877H326.642V210.825Z" fill="#860F48"/>
<path d="M1101.27 210.825H876.857V215.877H1101.27V210.825Z" fill="#860F48"/>
<path d="M340.335 213.441C340.335 216.675 340.79 219.605 341.649 222.181C342.507 224.707 343.72 226.88 345.286 228.648C346.852 230.416 348.671 231.729 350.793 232.689C352.915 233.599 355.238 234.053 357.764 234.053C360.29 234.053 362.564 233.548 364.534 232.538C366.504 231.527 368.323 230.113 369.889 228.294L367.01 225.212C365.747 226.627 364.383 227.738 362.917 228.496C361.503 229.254 359.836 229.658 357.865 229.658C355.996 229.658 354.279 229.254 352.763 228.496C351.247 227.738 349.934 226.627 348.923 225.212C347.863 223.798 347.054 222.08 346.448 220.11C345.842 218.089 345.589 215.866 345.589 213.34C345.589 210.865 345.892 208.642 346.499 206.672C347.105 204.701 347.913 202.984 349.025 201.62C350.136 200.205 351.449 199.144 352.965 198.386C354.481 197.628 356.198 197.275 358.118 197.275C359.836 197.275 361.301 197.628 362.564 198.285C363.827 198.942 364.989 199.851 366.05 200.963L368.929 197.78C367.717 196.467 366.252 195.305 364.433 194.345C362.614 193.334 360.493 192.829 358.068 192.829C355.491 192.829 353.167 193.334 350.995 194.294C348.822 195.204 346.953 196.568 345.387 198.386C343.821 200.154 342.558 202.327 341.699 204.853C340.79 207.379 340.335 210.258 340.335 213.441ZM390.198 234.053C392.674 234.053 394.998 233.599 397.069 232.639C399.14 231.628 400.959 230.264 402.475 228.446C403.99 226.677 405.152 224.505 405.96 221.929C406.819 219.352 407.223 216.472 407.223 213.29C407.223 210.107 406.819 207.278 405.96 204.752C405.152 202.226 403.99 200.104 402.475 198.336C400.959 196.568 399.14 195.204 397.069 194.294C394.998 193.334 392.674 192.829 390.198 192.829C387.672 192.829 385.399 193.334 383.328 194.244C381.206 195.153 379.438 196.517 377.922 198.285C376.457 200.053 375.295 202.175 374.436 204.701C373.628 207.227 373.224 210.107 373.224 213.29C373.224 216.472 373.628 219.352 374.436 221.929C375.295 224.505 376.457 226.677 377.922 228.446C379.438 230.264 381.206 231.628 383.328 232.639C385.399 233.599 387.672 234.053 390.198 234.053ZM390.198 229.658C388.43 229.658 386.813 229.254 385.348 228.496C383.934 227.738 382.721 226.627 381.66 225.212C380.65 223.747 379.842 222.03 379.286 220.059C378.73 218.039 378.427 215.765 378.427 213.29C378.427 210.814 378.73 208.591 379.286 206.621C379.842 204.651 380.65 202.933 381.66 201.569C382.721 200.205 383.934 199.144 385.348 198.386C386.813 197.628 388.43 197.275 390.198 197.275C391.966 197.275 393.583 197.628 394.998 198.386C396.463 199.144 397.675 200.205 398.686 201.569C399.747 202.933 400.555 204.651 401.111 206.621C401.666 208.591 401.969 210.814 401.969 213.29C401.969 215.765 401.666 218.039 401.111 220.059C400.555 222.03 399.747 223.747 398.686 225.212C397.675 226.627 396.463 227.738 394.998 228.496C393.583 229.254 391.966 229.658 390.198 229.658ZM415.761 193.587V233.346H420.561V212.532C420.561 210.461 420.51 208.339 420.359 206.267C420.207 204.196 420.056 202.125 419.904 200.104H420.157L424.451 208.288L438.849 233.346H444.103V193.587H439.304V214.149C439.304 216.22 439.354 218.342 439.506 220.514C439.657 222.686 439.758 224.758 439.91 226.779H439.657L435.363 218.544L420.965 193.587H415.761ZM455.116 224.657L452.085 228.193C453.803 230.012 455.874 231.426 458.249 232.487C460.674 233.548 463.25 234.053 466.029 234.053C468.15 234.053 470.02 233.801 471.687 233.195C473.304 232.588 474.718 231.78 475.931 230.77C477.093 229.759 478.002 228.547 478.608 227.183C479.214 225.768 479.568 224.303 479.568 222.737C479.568 221.272 479.315 220.009 478.911 218.897C478.507 217.786 477.901 216.826 477.194 215.967C476.436 215.159 475.577 214.401 474.567 213.795C473.556 213.189 472.495 212.633 471.384 212.128L465.726 209.703C464.917 209.4 464.109 209.046 463.351 208.642C462.593 208.238 461.886 207.834 461.229 207.328C460.573 206.823 460.067 206.217 459.714 205.56C459.31 204.903 459.107 204.045 459.107 203.085C459.107 201.266 459.815 199.851 461.128 198.841C462.492 197.78 464.311 197.275 466.534 197.275C468.353 197.275 470.02 197.628 471.535 198.285C473 198.942 474.314 199.851 475.526 201.013L478.254 197.78C476.84 196.315 475.122 195.103 473.101 194.193C471.081 193.284 468.908 192.829 466.534 192.829C464.715 192.829 463.048 193.132 461.532 193.637C460.017 194.143 458.703 194.9 457.592 195.86C456.48 196.82 455.571 197.932 454.965 199.195C454.359 200.508 454.005 201.923 454.005 203.388C454.005 204.853 454.258 206.116 454.763 207.227C455.217 208.339 455.874 209.299 456.632 210.107C457.39 210.915 458.249 211.623 459.259 212.178C460.219 212.734 461.179 213.239 462.088 213.643L467.797 216.119C468.706 216.573 469.565 216.978 470.373 217.382C471.182 217.786 471.889 218.241 472.495 218.746C473.051 219.251 473.556 219.857 473.859 220.565C474.213 221.272 474.415 222.131 474.415 223.141C474.415 225.111 473.657 226.677 472.192 227.839C470.778 229.052 468.706 229.658 466.079 229.658C464.008 229.658 462.038 229.203 460.118 228.294C458.198 227.385 456.531 226.172 455.116 224.657ZM487.197 193.587V216.927C487.197 220.11 487.55 222.787 488.257 224.96C489.015 227.183 490.026 228.951 491.289 230.264C492.552 231.628 494.067 232.588 495.835 233.195C497.604 233.801 499.473 234.053 501.494 234.053C503.514 234.053 505.384 233.801 507.152 233.195C508.87 232.588 510.385 231.628 511.648 230.264C512.911 228.951 513.922 227.183 514.629 224.96C515.387 222.787 515.74 220.11 515.74 216.927V193.587H510.89V217.028C510.89 219.403 510.638 221.423 510.183 223.04C509.678 224.657 509.021 225.97 508.162 226.93C507.303 227.89 506.344 228.597 505.182 229.001C504.07 229.456 502.807 229.658 501.494 229.658C500.18 229.658 498.968 229.456 497.856 229.001C496.745 228.597 495.734 227.89 494.926 226.93C494.067 225.97 493.41 224.657 492.956 223.04C492.451 221.423 492.198 219.403 492.198 217.028V193.587H487.197ZM526.451 193.587V233.346H548.881V229.052H531.502V193.587H526.451ZM556.914 197.831V233.346H562.017V197.831H573.99V193.587H544.89V197.831H556.914ZM581.164 193.587V233.346H586.165V193.587H581.164ZM597.077 193.587V233.346H601.877V212.532C601.877 210.461 601.826 208.339 601.675 206.267C601.523 204.196 601.372 202.125 601.22 200.104H601.473L605.767 208.288L620.215 233.346H625.419V193.587H620.62V214.149C620.62 216.22 620.67 218.342 620.822 220.514C620.973 222.686 621.125 224.758 621.226 226.779H620.973L616.679 218.544L602.331 193.587H597.077ZM634.007 213.441C634.007 216.675 634.462 219.605 635.371 222.181C636.23 224.707 637.493 226.88 639.059 228.648C640.626 230.416 642.495 231.729 644.667 232.689C646.89 233.599 649.264 234.053 651.891 234.053C654.569 234.053 656.943 233.649 659.065 232.79C661.187 231.881 662.905 230.82 664.218 229.456V212.734H651.184V216.927H659.621V227.284C658.813 227.991 657.752 228.597 656.489 229.001C655.226 229.456 653.862 229.658 652.447 229.658C650.325 229.658 648.406 229.254 646.789 228.496C645.122 227.738 643.758 226.627 642.646 225.212C641.535 223.798 640.676 222.08 640.12 220.11C639.514 218.089 639.211 215.866 639.211 213.34C639.211 210.865 639.565 208.642 640.171 206.672C640.777 204.701 641.686 202.984 642.798 201.62C643.96 200.205 645.324 199.144 646.941 198.386C648.557 197.628 650.376 197.275 652.397 197.275C654.417 197.275 656.085 197.628 657.398 198.336C658.712 199.043 659.874 199.902 660.884 200.963L663.713 197.78C662.551 196.568 661.036 195.406 659.217 194.395C657.348 193.385 655.074 192.829 652.346 192.829C649.669 192.829 647.193 193.334 644.97 194.294C642.747 195.204 640.828 196.568 639.211 198.386C637.544 200.154 636.281 202.327 635.371 204.853C634.462 207.379 634.007 210.258 634.007 213.441ZM683.669 213.441C683.669 216.675 684.123 219.605 684.982 222.181C685.891 224.707 687.104 226.88 688.721 228.648C690.287 230.416 692.156 231.729 694.328 232.689C696.501 233.599 698.926 234.053 701.553 234.053C704.23 234.053 706.605 233.649 708.726 232.79C710.848 231.881 712.566 230.82 713.879 229.456V212.734H700.845V216.927H709.232V227.284C708.423 227.991 707.413 228.597 706.15 229.001C704.836 229.456 703.523 229.658 702.108 229.658C699.936 229.658 698.067 229.254 696.45 228.496C694.783 227.738 693.419 226.627 692.307 225.212C691.196 223.798 690.337 222.08 689.781 220.11C689.175 218.089 688.872 215.866 688.872 213.34C688.872 210.865 689.175 208.642 689.832 206.672C690.438 204.701 691.348 202.984 692.459 201.62C693.57 200.205 694.985 199.144 696.602 198.386C698.218 197.628 700.037 197.275 702.058 197.275C704.079 197.275 705.746 197.628 707.059 198.336C708.373 199.043 709.535 199.902 710.545 200.963L713.374 197.78C712.212 196.568 710.697 195.406 708.878 194.395C707.009 193.385 704.735 192.829 701.957 192.829C699.33 192.829 696.854 193.334 694.631 194.294C692.408 195.204 690.489 196.568 688.872 198.386C687.205 200.154 685.942 202.327 685.033 204.853C684.123 207.379 683.669 210.258 683.669 213.441ZM728.429 212.431V197.628H735.098C738.18 197.628 740.554 198.184 742.221 199.195C743.888 200.256 744.697 202.125 744.697 204.752C744.697 207.328 743.888 209.248 742.221 210.511C740.554 211.774 738.18 212.431 735.098 212.431H728.429ZM745.202 233.346H750.911L740.857 216.018C743.535 215.31 745.707 214.047 747.324 212.178C748.94 210.309 749.749 207.834 749.749 204.752C749.749 202.68 749.395 200.912 748.738 199.498C748.031 198.083 747.071 196.972 745.859 196.062C744.596 195.153 743.13 194.547 741.413 194.143C739.695 193.789 737.826 193.587 735.805 193.587H723.377V233.346H728.429V216.573H735.603L745.202 233.346ZM773.291 234.053C775.766 234.053 778.09 233.599 780.162 232.639C782.233 231.628 784.052 230.264 785.567 228.446C787.083 226.677 788.245 224.505 789.053 221.929C789.912 219.352 790.316 216.472 790.316 213.29C790.316 210.107 789.912 207.278 789.053 204.752C788.245 202.226 787.083 200.104 785.567 198.336C784.052 196.568 782.233 195.204 780.162 194.294C778.09 193.334 775.766 192.829 773.291 192.829C770.765 192.829 768.491 193.334 766.37 194.244C764.298 195.153 762.53 196.517 761.015 198.285C759.549 200.053 758.387 202.175 757.529 204.701C756.72 207.227 756.316 210.107 756.316 213.29C756.316 216.472 756.72 219.352 757.529 221.929C758.387 224.505 759.549 226.677 761.015 228.446C762.53 230.264 764.298 231.628 766.37 232.639C768.491 233.599 770.765 234.053 773.291 234.053ZM773.291 229.658C771.472 229.658 769.906 229.254 768.441 228.496C767.026 227.738 765.763 226.627 764.753 225.212C763.743 223.747 762.934 222.03 762.379 220.059C761.772 218.039 761.52 215.765 761.52 213.29C761.52 210.814 761.772 208.591 762.379 206.621C762.934 204.651 763.743 202.933 764.753 201.569C765.763 200.205 767.026 199.144 768.441 198.386C769.906 197.628 771.472 197.275 773.291 197.275C775.059 197.275 776.676 197.628 778.09 198.386C779.505 199.144 780.768 200.205 781.778 201.569C782.839 202.933 783.597 204.651 784.203 206.621C784.759 208.591 785.011 210.814 785.011 213.29C785.011 215.765 784.759 218.039 784.203 220.059C783.597 222.03 782.839 223.747 781.778 225.212C780.768 226.627 779.505 227.738 778.09 228.496C776.676 229.254 775.059 229.658 773.291 229.658ZM798.652 193.587V216.927C798.652 220.11 799.056 222.787 799.763 224.96C800.471 227.183 801.481 228.951 802.744 230.264C804.058 231.628 805.573 232.588 807.291 233.195C809.059 233.801 810.979 234.053 813 234.053C815.02 234.053 816.89 233.801 818.607 233.195C820.375 232.588 821.841 231.628 823.154 230.264C824.417 228.951 825.427 227.183 826.135 224.96C826.842 222.787 827.246 220.11 827.246 216.927V193.587H822.396V217.028C822.396 219.403 822.144 221.423 821.638 223.04C821.184 224.657 820.476 225.97 819.668 226.93C818.809 227.89 817.799 228.597 816.687 229.001C815.526 229.456 814.313 229.658 813 229.658C811.686 229.658 810.474 229.456 809.362 229.001C808.2 228.597 807.24 227.89 806.381 226.93C805.573 225.97 804.916 224.657 804.411 223.04C803.956 221.423 803.704 219.403 803.704 217.028V193.587H798.652ZM837.956 193.587V233.346H843.008V217.584H850.132C852.304 217.584 854.325 217.331 856.093 216.826C857.912 216.321 859.478 215.563 860.741 214.553C862.054 213.542 863.065 212.279 863.772 210.713C864.479 209.198 864.833 207.379 864.833 205.257C864.833 203.085 864.479 201.266 863.772 199.75C863.065 198.285 862.054 197.073 860.791 196.163C859.528 195.254 857.962 194.597 856.144 194.193C854.325 193.789 852.304 193.587 850.132 193.587H837.956ZM849.525 213.441H843.008V197.628H849.525C852.961 197.628 855.537 198.184 857.255 199.296C858.922 200.407 859.781 202.428 859.781 205.257C859.781 208.086 858.922 210.157 857.255 211.471C855.588 212.784 853.011 213.441 849.525 213.441Z" fill="#860F48"/>
</svg>
