<svg width="234" height="50" viewBox="0 0 234 50" fill="none" xmlns="http://www.w3.org/2000/svg">
<path d="M14.6296 6.98083H0.920776V11.6512H5.42318V31.408H10.1048V11.6512H14.6296V6.98083ZM29.6712 6.98083H17.2504V31.408H29.6712V26.7264H21.932V21.5184H28.1144V16.8592H21.932V11.6512H29.6712V6.98083ZM42.764 11.6512V17.4528H36.9624V11.6512H42.764ZM43.8504 6.98083H32.2808V31.408H36.9624V22.112H42.764V31.408H47.4232V20.4768L46.1464 19.2336L47.4232 17.9568V10.576L43.8504 6.98083ZM60.5272 11.6512V17.4528H54.7256V11.6512H60.5272ZM61.6024 6.98083H50.044V31.408H54.7256V22.112H60.5272V31.408H65.1864V20.4768L63.9096 19.2336L65.1864 17.9568V10.576L61.6024 6.98083ZM76.6552 15.896L78.3576 22.5712H74.8632L76.6552 15.896ZM72.4888 31.408L73.6088 27.2528H79.5448L80.6088 31.408H85.268L79.0744 6.98083H74.3928L67.8072 31.408H72.4888ZM98.5736 6.98083H90.5992L87.0152 10.576V27.824L90.5992 31.408H98.5736L102.158 27.824V23.0752H97.4984V26.7264H91.6968V11.6512H97.4984V15.3024H102.158V10.576L98.5736 6.98083ZM117.188 6.98083H104.778V31.408H117.188V26.7264H109.46V21.5184H115.642V16.8592H109.46V11.6512H117.188V6.98083Z" fill="#393458"/>
<path d="M128.701 33.756L132.014 28.278L126.467 19.1073L117.606 33.756H128.701Z" fill="#393458"/>
<path d="M143.919 29.749H143.916L146.45 33.9334H157.541L137.586 0.946594L132.039 10.1173L143.919 29.749Z" fill="#860F48"/>
<path d="M135.094 33.6736H139.826L137.46 29.7631L135.094 33.6736Z" fill="#393458"/>
<path d="M168.919 11.6512V17.4528H163.14V11.6512H168.919ZM170.016 6.98083H158.458V31.408H163.14V22.112H170.016L173.6 18.5392V10.576L170.016 6.98083ZM186.693 11.6512V26.7264H180.903V11.6512H186.693ZM187.78 6.98083H179.794L176.221 10.576V27.824L179.794 31.408H187.78L191.364 27.824V10.576L187.78 6.98083ZM193.984 6.98083V31.408H198.655V6.98083H193.984ZM212.722 6.98083V20.8912L206.54 6.98083H201.276V31.408H205.957V17.4864L212.14 31.408H217.392V6.98083H212.722ZM233.722 6.98083H220.013V11.6512H224.527V31.408H229.208V11.6512H233.722V6.98083Z" fill="#860F48"/>
<path d="M56.2652 44.36H6.51477V45.48H56.2652V44.36Z" fill="#860F48"/>
<path d="M227.995 44.36H178.245V45.48H227.995V44.36Z" fill="#860F48"/>
<path d="M59.3008 44.94C59.3008 45.6568 59.4016 46.3064 59.592 46.8776C59.7824 47.4376 60.0512 47.9192 60.3984 48.3112C60.7456 48.7032 61.1488 48.9944 61.6192 49.2072C62.0896 49.4088 62.6048 49.5096 63.1648 49.5096C63.7248 49.5096 64.2288 49.3976 64.6656 49.1736C65.1024 48.9496 65.5056 48.636 65.8528 48.2328L65.2144 47.5496C64.9344 47.8632 64.632 48.1096 64.3072 48.2776C63.9936 48.4456 63.624 48.5352 63.1872 48.5352C62.7728 48.5352 62.392 48.4456 62.056 48.2776C61.72 48.1096 61.4288 47.8632 61.2048 47.5496C60.9696 47.236 60.7904 46.8552 60.656 46.4184C60.5216 45.9704 60.4656 45.4776 60.4656 44.9176C60.4656 44.3688 60.5328 43.876 60.6672 43.4392C60.8016 43.0024 60.9808 42.6216 61.2272 42.3192C61.4736 42.0056 61.7648 41.7704 62.1008 41.6024C62.4368 41.4344 62.8176 41.356 63.2432 41.356C63.624 41.356 63.9488 41.4344 64.2288 41.58C64.5088 41.7256 64.7664 41.9272 65.0016 42.1736L65.64 41.468C65.3712 41.1768 65.0464 40.9192 64.6432 40.7064C64.24 40.4824 63.7696 40.3704 63.232 40.3704C62.6608 40.3704 62.1456 40.4824 61.664 40.6952C61.1824 40.8968 60.768 41.1992 60.4208 41.6024C60.0736 41.9944 59.7936 42.476 59.6032 43.036C59.4016 43.596 59.3008 44.2344 59.3008 44.94ZM70.3552 49.5096C70.904 49.5096 71.4192 49.4088 71.8784 49.196C72.3376 48.972 72.7408 48.6696 73.0768 48.2664C73.4128 47.8744 73.6704 47.3928 73.8496 46.8216C74.04 46.2504 74.1296 45.612 74.1296 44.9064C74.1296 44.2008 74.04 43.5736 73.8496 43.0136C73.6704 42.4536 73.4128 41.9832 73.0768 41.5912C72.7408 41.1992 72.3376 40.8968 71.8784 40.6952C71.4192 40.4824 70.904 40.3704 70.3552 40.3704C69.7952 40.3704 69.2912 40.4824 68.832 40.684C68.3616 40.8856 67.9696 41.188 67.6336 41.58C67.3088 41.972 67.0512 42.4424 66.8608 43.0024C66.6816 43.5624 66.592 44.2008 66.592 44.9064C66.592 45.612 66.6816 46.2504 66.8608 46.8216C67.0512 47.3928 67.3088 47.8744 67.6336 48.2664C67.9696 48.6696 68.3616 48.972 68.832 49.196C69.2912 49.4088 69.7952 49.5096 70.3552 49.5096ZM70.3552 48.5352C69.9632 48.5352 69.6048 48.4456 69.28 48.2776C68.9664 48.1096 68.6976 47.8632 68.4624 47.5496C68.2384 47.2248 68.0592 46.844 67.936 46.4072C67.8128 45.9592 67.7456 45.4552 67.7456 44.9064C67.7456 44.3576 67.8128 43.8648 67.936 43.428C68.0592 42.9912 68.2384 42.6104 68.4624 42.308C68.6976 42.0056 68.9664 41.7704 69.28 41.6024C69.6048 41.4344 69.9632 41.356 70.3552 41.356C70.7472 41.356 71.1056 41.4344 71.4192 41.6024C71.744 41.7704 72.0128 42.0056 72.2368 42.308C72.472 42.6104 72.6512 42.9912 72.7744 43.428C72.8976 43.8648 72.9648 44.3576 72.9648 44.9064C72.9648 45.4552 72.8976 45.9592 72.7744 46.4072C72.6512 46.844 72.472 47.2248 72.2368 47.5496C72.0128 47.8632 71.744 48.1096 71.4192 48.2776C71.1056 48.4456 70.7472 48.5352 70.3552 48.5352ZM76.0224 40.5384V49.3528H77.0864V44.7384C77.0864 44.2792 77.0752 43.8088 77.0416 43.3496C77.008 42.8904 76.9744 42.4312 76.9408 41.9832H76.9968L77.9488 43.7976L81.1408 49.3528H82.3056V40.5384H81.2416V45.0968C81.2416 45.556 81.2528 46.0264 81.2864 46.508C81.32 46.9896 81.3424 47.4488 81.376 47.8968H81.32L80.368 46.0712L77.176 40.5384H76.0224ZM84.7472 47.4264L84.0752 48.2104C84.456 48.6136 84.9152 48.9272 85.4416 49.1624C85.9792 49.3976 86.5504 49.5096 87.1664 49.5096C87.6368 49.5096 88.0512 49.4536 88.4208 49.3192C88.7792 49.1848 89.0928 49.0056 89.3616 48.7816C89.6192 48.5576 89.8208 48.2888 89.9552 47.9864C90.0896 47.6728 90.168 47.348 90.168 47.0008C90.168 46.676 90.112 46.396 90.0224 46.1496C89.9328 45.9032 89.7984 45.6904 89.6416 45.5C89.4736 45.3208 89.2832 45.1528 89.0592 45.0184C88.8352 44.884 88.6 44.7608 88.3536 44.6488L87.0992 44.1112C86.92 44.044 86.7408 43.9656 86.5728 43.876C86.4048 43.7864 86.248 43.6968 86.1024 43.5848C85.9568 43.4728 85.8448 43.3384 85.7664 43.1928C85.6768 43.0472 85.632 42.8568 85.632 42.644C85.632 42.2408 85.7888 41.9272 86.08 41.7032C86.3824 41.468 86.7856 41.356 87.2784 41.356C87.6816 41.356 88.0512 41.4344 88.3872 41.58C88.712 41.7256 89.0032 41.9272 89.272 42.1848L89.8768 41.468C89.5632 41.1432 89.1824 40.8744 88.7344 40.6728C88.2864 40.4712 87.8048 40.3704 87.2784 40.3704C86.8752 40.3704 86.5056 40.4376 86.1696 40.5496C85.8336 40.6616 85.5424 40.8296 85.296 41.0424C85.0496 41.2552 84.848 41.5016 84.7136 41.7816C84.5792 42.0728 84.5008 42.3864 84.5008 42.7112C84.5008 43.036 84.5568 43.316 84.6688 43.5624C84.7696 43.8088 84.9152 44.0216 85.0832 44.2008C85.2512 44.38 85.4416 44.5368 85.6656 44.66C85.8784 44.7832 86.0912 44.8952 86.2928 44.9848L87.5584 45.5336C87.76 45.6344 87.9504 45.724 88.1296 45.8136C88.3088 45.9032 88.4656 46.004 88.6 46.116C88.7232 46.228 88.8352 46.3624 88.9024 46.5192C88.9808 46.676 89.0256 46.8664 89.0256 47.0904C89.0256 47.5272 88.8576 47.8744 88.5328 48.132C88.2192 48.4008 87.76 48.5352 87.1776 48.5352C86.7184 48.5352 86.2816 48.4344 85.856 48.2328C85.4304 48.0312 85.0608 47.7624 84.7472 47.4264ZM91.8592 40.5384V45.7128C91.8592 46.4184 91.9376 47.012 92.0944 47.4936C92.2624 47.9864 92.4864 48.3784 92.7664 48.6696C93.0464 48.972 93.3824 49.1848 93.7744 49.3192C94.1664 49.4536 94.5808 49.5096 95.0288 49.5096C95.4768 49.5096 95.8912 49.4536 96.2832 49.3192C96.664 49.1848 97 48.972 97.28 48.6696C97.56 48.3784 97.784 47.9864 97.9408 47.4936C98.1088 47.012 98.1872 46.4184 98.1872 45.7128V40.5384H97.112V45.7352C97.112 46.2616 97.056 46.7096 96.9552 47.068C96.8432 47.4264 96.6976 47.7176 96.5072 47.9304C96.3168 48.1432 96.104 48.3 95.8464 48.3896C95.6 48.4904 95.32 48.5352 95.0288 48.5352C94.7376 48.5352 94.4688 48.4904 94.2224 48.3896C93.976 48.3 93.752 48.1432 93.5728 47.9304C93.3824 47.7176 93.2368 47.4264 93.136 47.068C93.024 46.7096 92.968 46.2616 92.968 45.7352V40.5384H91.8592ZM100.562 40.5384V49.3528H105.534V48.4008H101.682V40.5384H100.562ZM107.315 41.4792V49.3528H108.446V41.4792H111.101V40.5384H104.65V41.4792H107.315ZM112.691 40.5384V49.3528H113.8V40.5384H112.691ZM116.219 40.5384V49.3528H117.283V44.7384C117.283 44.2792 117.272 43.8088 117.238 43.3496C117.205 42.8904 117.171 42.4312 117.138 41.9832H117.194L118.146 43.7976L121.349 49.3528H122.502V40.5384H121.438V45.0968C121.438 45.556 121.45 46.0264 121.483 46.508C121.517 46.9896 121.55 47.4488 121.573 47.8968H121.517L120.565 46.0712L117.384 40.5384H116.219ZM124.406 44.94C124.406 45.6568 124.507 46.3064 124.709 46.8776C124.899 47.4376 125.179 47.9192 125.526 48.3112C125.874 48.7032 126.288 48.9944 126.77 49.2072C127.262 49.4088 127.789 49.5096 128.371 49.5096C128.965 49.5096 129.491 49.42 129.962 49.2296C130.432 49.028 130.813 48.7928 131.104 48.4904V44.7832H128.214V45.7128H130.085V48.0088C129.906 48.1656 129.67 48.3 129.39 48.3896C129.11 48.4904 128.808 48.5352 128.494 48.5352C128.024 48.5352 127.598 48.4456 127.24 48.2776C126.87 48.1096 126.568 47.8632 126.322 47.5496C126.075 47.236 125.885 46.8552 125.762 46.4184C125.627 45.9704 125.56 45.4776 125.56 44.9176C125.56 44.3688 125.638 43.876 125.773 43.4392C125.907 43.0024 126.109 42.6216 126.355 42.3192C126.613 42.0056 126.915 41.7704 127.274 41.6024C127.632 41.4344 128.035 41.356 128.483 41.356C128.931 41.356 129.301 41.4344 129.592 41.5912C129.883 41.748 130.141 41.9384 130.365 42.1736L130.992 41.468C130.734 41.1992 130.398 40.9416 129.995 40.7176C129.581 40.4936 129.077 40.3704 128.472 40.3704C127.878 40.3704 127.33 40.4824 126.837 40.6952C126.344 40.8968 125.918 41.1992 125.56 41.6024C125.19 41.9944 124.91 42.476 124.709 43.036C124.507 43.596 124.406 44.2344 124.406 44.94ZM135.416 44.94C135.416 45.6568 135.517 46.3064 135.707 46.8776C135.909 47.4376 136.178 47.9192 136.536 48.3112C136.883 48.7032 137.298 48.9944 137.779 49.2072C138.261 49.4088 138.798 49.5096 139.381 49.5096C139.974 49.5096 140.501 49.42 140.971 49.2296C141.442 49.028 141.822 48.7928 142.114 48.4904V44.7832H139.224V45.7128H141.083V48.0088C140.904 48.1656 140.68 48.3 140.4 48.3896C140.109 48.4904 139.818 48.5352 139.504 48.5352C139.022 48.5352 138.608 48.4456 138.25 48.2776C137.88 48.1096 137.578 47.8632 137.331 47.5496C137.085 47.236 136.894 46.8552 136.771 46.4184C136.637 45.9704 136.57 45.4776 136.57 44.9176C136.57 44.3688 136.637 43.876 136.782 43.4392C136.917 43.0024 137.118 42.6216 137.365 42.3192C137.611 42.0056 137.925 41.7704 138.283 41.6024C138.642 41.4344 139.045 41.356 139.493 41.356C139.941 41.356 140.31 41.4344 140.602 41.5912C140.893 41.748 141.15 41.9384 141.374 42.1736L142.002 41.468C141.744 41.1992 141.408 40.9416 141.005 40.7176C140.59 40.4936 140.086 40.3704 139.47 40.3704C138.888 40.3704 138.339 40.4824 137.846 40.6952C137.354 40.8968 136.928 41.1992 136.57 41.6024C136.2 41.9944 135.92 42.476 135.718 43.036C135.517 43.596 135.416 44.2344 135.416 44.94ZM145.339 44.716V41.4344H146.818C147.501 41.4344 148.027 41.5576 148.397 41.7816C148.766 42.0168 148.946 42.4312 148.946 43.0136C148.946 43.5848 148.766 44.0104 148.397 44.2904C148.027 44.5704 147.501 44.716 146.818 44.716H145.339ZM149.058 49.3528H150.323L148.094 45.5112C148.688 45.3544 149.17 45.0744 149.528 44.66C149.886 44.2456 150.066 43.6968 150.066 43.0136C150.066 42.5544 149.987 42.1624 149.842 41.8488C149.685 41.5352 149.472 41.2888 149.203 41.0872C148.923 40.8856 148.598 40.7512 148.218 40.6616C147.837 40.5832 147.422 40.5384 146.974 40.5384H144.219V49.3528H145.339V45.6344H146.93L149.058 49.3528ZM155.285 49.5096C155.834 49.5096 156.349 49.4088 156.808 49.196C157.267 48.972 157.67 48.6696 158.006 48.2664C158.342 47.8744 158.6 47.3928 158.779 46.8216C158.97 46.2504 159.059 45.612 159.059 44.9064C159.059 44.2008 158.97 43.5736 158.779 43.0136C158.6 42.4536 158.342 41.9832 158.006 41.5912C157.67 41.1992 157.267 40.8968 156.808 40.6952C156.349 40.4824 155.834 40.3704 155.285 40.3704C154.725 40.3704 154.221 40.4824 153.75 40.684C153.291 40.8856 152.899 41.188 152.563 41.58C152.238 41.972 151.981 42.4424 151.79 43.0024C151.611 43.5624 151.522 44.2008 151.522 44.9064C151.522 45.612 151.611 46.2504 151.79 46.8216C151.981 47.3928 152.238 47.8744 152.563 48.2664C152.899 48.6696 153.291 48.972 153.75 49.196C154.221 49.4088 154.725 49.5096 155.285 49.5096ZM155.285 48.5352C154.882 48.5352 154.534 48.4456 154.21 48.2776C153.896 48.1096 153.616 47.8632 153.392 47.5496C153.168 47.2248 152.989 46.844 152.866 46.4072C152.731 45.9592 152.675 45.4552 152.675 44.9064C152.675 44.3576 152.731 43.8648 152.866 43.428C152.989 42.9912 153.168 42.6104 153.392 42.308C153.616 42.0056 153.896 41.7704 154.21 41.6024C154.534 41.4344 154.882 41.356 155.285 41.356C155.677 41.356 156.035 41.4344 156.349 41.6024C156.662 41.7704 156.942 42.0056 157.166 42.308C157.402 42.6104 157.57 42.9912 157.704 43.428C157.827 43.8648 157.883 44.3576 157.883 44.9064C157.883 45.4552 157.827 45.9592 157.704 46.4072C157.57 46.844 157.402 47.2248 157.166 47.5496C156.942 47.8632 156.662 48.1096 156.349 48.2776C156.035 48.4456 155.677 48.5352 155.285 48.5352ZM160.907 40.5384V45.7128C160.907 46.4184 160.997 47.012 161.154 47.4936C161.31 47.9864 161.534 48.3784 161.814 48.6696C162.106 48.972 162.442 49.1848 162.822 49.3192C163.214 49.4536 163.64 49.5096 164.088 49.5096C164.536 49.5096 164.95 49.4536 165.331 49.3192C165.723 49.1848 166.048 48.972 166.339 48.6696C166.619 48.3784 166.843 47.9864 167 47.4936C167.157 47.012 167.246 46.4184 167.246 45.7128V40.5384H166.171V45.7352C166.171 46.2616 166.115 46.7096 166.003 47.068C165.902 47.4264 165.746 47.7176 165.566 47.9304C165.376 48.1432 165.152 48.3 164.906 48.3896C164.648 48.4904 164.379 48.5352 164.088 48.5352C163.797 48.5352 163.528 48.4904 163.282 48.3896C163.024 48.3 162.811 48.1432 162.621 47.9304C162.442 47.7176 162.296 47.4264 162.184 47.068C162.083 46.7096 162.027 46.2616 162.027 45.7352V40.5384H160.907ZM169.621 40.5384V49.3528H170.741V45.8584H172.32C172.802 45.8584 173.25 45.8024 173.642 45.6904C174.045 45.5784 174.392 45.4104 174.672 45.1864C174.963 44.9624 175.187 44.6824 175.344 44.3352C175.501 43.9992 175.579 43.596 175.579 43.1256C175.579 42.644 175.501 42.2408 175.344 41.9048C175.187 41.58 174.963 41.3112 174.683 41.1096C174.403 40.908 174.056 40.7624 173.653 40.6728C173.25 40.5832 172.802 40.5384 172.32 40.5384H169.621ZM172.186 44.94H170.741V41.4344H172.186C172.947 41.4344 173.518 41.5576 173.899 41.804C174.269 42.0504 174.459 42.4984 174.459 43.1256C174.459 43.7528 174.269 44.212 173.899 44.5032C173.53 44.7944 172.958 44.94 172.186 44.94Z" fill="#860F48"/>
</svg>
