<?xml version="1.0" encoding="UTF-8" standalone="no" ?>
<!DOCTYPE svg PUBLIC "-//W3C//DTD SVG 1.1//EN" "http://www.w3.org/Graphics/SVG/1.1/DTD/svg11.dtd">
<svg xmlns="http://www.w3.org/2000/svg" xmlns:xlink="http://www.w3.org/1999/xlink" version="1.1" width="270" height="270" viewBox="841 314 270 270" xml:space="preserve">
<desc>Created with Fabric.js 5.2.4</desc>
<defs>
</defs>
<rect x="0" y="0" width="100%" height="100%" fill="transparent"></rect>
<g transform="matrix(1 0 0 1 135 135)" id="b13fc47e-01c0-4a4b-8a43-59f05a4cb807"  >
<rect style="stroke: none; stroke-width: 1; stroke-dasharray: none; stroke-linecap: butt; stroke-dashoffset: 0; stroke-linejoin: miter; stroke-miterlimit: 4; fill: rgb(255,255,255); fill-rule: nonzero; opacity: 1; visibility: hidden;" vector-effect="non-scaling-stroke"  x="-135" y="-135" rx="0" ry="0" width="270" height="270" />
</g>
<g transform="matrix(0 0 0 0 0 0)" id="22607f69-5c8b-42c8-bf5d-88581392c3cf"  >
</g>
<g transform="matrix(1.12 0 0 1.12 919.06 443.2)"  >
<path style="stroke: none; stroke-width: 1; stroke-dasharray: none; stroke-linecap: butt; stroke-dashoffset: 0; stroke-linejoin: miter; stroke-miterlimit: 4; fill: rgb(57,52,88); fill-rule: nonzero; opacity: 1;" vector-effect="non-scaling-stroke"  transform=" translate(-51.91, 10.9)" d="M 12.24 -21.81 L 0 -21.81 L 0 -17.64 L 4.02 -17.64 L 4.02 0 L 8.2 0 L 8.2 -17.64 L 12.24 -17.64 L 12.24 -21.81 Z M 25.67 -21.81 L 14.58 -21.81 L 14.58 0 L 25.67 0 L 25.67 -4.18 L 18.76 -4.18 L 18.76 -8.83 L 24.28 -8.83 L 24.28 -12.99 L 18.76 -12.99 L 18.76 -17.64 L 25.67 -17.64 L 25.67 -21.81 Z M 37.36 -17.64 L 37.36 -12.46 L 32.18 -12.46 L 32.18 -17.64 L 37.36 -17.64 Z M 38.33 -21.81 L 28 -21.81 L 28 0 L 32.18 0 L 32.18 -8.3 L 37.36 -8.3 L 37.36 0 L 41.52 0 L 41.52 -9.76 L 40.38 -10.87 L 41.52 -12.01 L 41.52 -18.6 L 38.33 -21.81 Z M 53.22 -17.64 L 53.22 -12.46 L 48.04 -12.46 L 48.04 -17.64 L 53.22 -17.64 Z M 54.18 -21.81 L 43.86 -21.81 L 43.86 0 L 48.04 0 L 48.04 -8.3 L 53.22 -8.3 L 53.22 0 L 57.38 0 L 57.38 -9.76 L 56.24 -10.87 L 57.38 -12.01 L 57.38 -18.6 L 54.18 -21.81 Z M 67.62 -13.85 L 69.14 -7.89 L 66.02 -7.89 L 67.62 -13.85 Z M 63.9 0 L 64.9 -3.71 L 70.2 -3.71 L 71.15 0 L 75.31 0 L 69.78 -21.81 L 65.6 -21.81 L 59.72 0 L 63.9 0 Z M 87.19 -21.81 L 80.07 -21.81 L 76.87 -18.6 L 76.87 -3.2 L 80.07 0 L 87.19 0 L 90.39 -3.2 L 90.39 -7.44 L 86.23 -7.44 L 86.23 -4.18 L 81.05 -4.18 L 81.05 -17.64 L 86.23 -17.64 L 86.23 -14.38 L 90.39 -14.38 L 90.39 -18.6 L 87.19 -21.81 Z M 103.81 -21.81 L 92.73 -21.81 L 92.73 0 L 103.81 0 L 103.81 -4.18 L 96.91 -4.18 L 96.91 -8.83 L 102.43 -8.83 L 102.43 -12.99 L 96.91 -12.99 L 96.91 -17.64 L 103.81 -17.64 L 103.81 -21.81 Z" stroke-linecap="round" />
</g>
<g transform="matrix(1.12 0 0 1.12 997.6 443.21)"  >
<rect style="stroke: none; stroke-width: 2; stroke-dasharray: none; stroke-linecap: butt; stroke-dashoffset: 0; stroke-linejoin: miter; stroke-miterlimit: 4; fill: rgb(57,52,88); fill-opacity: 0; fill-rule: nonzero; opacity: 1;" vector-effect="non-scaling-stroke"  x="-15.83" y="-13.09" rx="0" ry="0" width="31.66" height="26.18" />
</g>
<g transform="matrix(0.33 0 0 0.33 984.81 450.43)"  >
<path style="stroke: none; stroke-width: 1; stroke-dasharray: none; stroke-linecap: butt; stroke-dashoffset: 0; stroke-linejoin: miter; stroke-miterlimit: 4; fill: rgb(57,52,88); fill-rule: nonzero; opacity: 1;" vector-effect="non-scaling-stroke"  transform=" translate(-21.83, -77.76)" d="M 33.62 99.96 L 43.66 83.35999999999999 L 26.849999999999998 55.569999999999986 L 0 99.96 L 33.62 99.96 z" stroke-linecap="round" />
</g>
<g transform="matrix(0.33 0 0 0.33 1004.79 441.44)"  >
<path style="stroke: none; stroke-width: 1; stroke-dasharray: none; stroke-linecap: butt; stroke-dashoffset: 0; stroke-linejoin: miter; stroke-miterlimit: 4; fill: rgb(134,15,72); fill-rule: nonzero; opacity: 1;" vector-effect="non-scaling-stroke"  transform=" translate(-82.3, -49.98)" d="M 79.66 87.28 L 79.64999999999999 87.28 L 87.32999999999998 99.96000000000001 L 120.93999999999998 99.96000000000001 L 60.47 0 L 43.66 27.79 L 79.66 87.28 z" stroke-linecap="round" />
</g>
<g transform="matrix(0.33 0 0 0.33 997.46 455.72)"  >
<path style="stroke: none; stroke-width: 1; stroke-dasharray: none; stroke-linecap: butt; stroke-dashoffset: 0; stroke-linejoin: miter; stroke-miterlimit: 4; fill: rgb(57,52,88); fill-rule: nonzero; opacity: 1;" vector-effect="non-scaling-stroke"  transform=" translate(-60.47, -94.08)" d="M 53.3 100 L 67.64 100 L 60.47 88.15 L 53.3 100 z" stroke-linecap="round" />
</g>
<g transform="matrix(1.12 0 0 1.12 1056.09 443.2)"  >
<path style="stroke: none; stroke-width: 1; stroke-dasharray: none; stroke-linecap: butt; stroke-dashoffset: 0; stroke-linejoin: miter; stroke-miterlimit: 4; fill: rgb(134,15,72); fill-rule: nonzero; opacity: 1;" vector-effect="non-scaling-stroke"  transform=" translate(-33.6, 10.9)" d="M 9.34 -17.64 L 9.34 -12.46 L 4.18 -12.46 L 4.18 -17.64 L 9.34 -17.64 Z M 10.32 -21.81 L 0 -21.81 L 0 0 L 4.18 0 L 4.18 -8.3 L 10.32 -8.3 L 13.52 -11.49 L 13.52 -18.6 L 10.32 -21.81 Z M 25.21 -17.64 L 25.21 -4.18 L 20.04 -4.18 L 20.04 -17.64 L 25.21 -17.64 Z M 26.18 -21.81 L 19.05 -21.81 L 15.86 -18.6 L 15.86 -3.2 L 19.05 0 L 26.18 0 L 29.38 -3.2 L 29.38 -18.6 L 26.18 -21.81 Z M 31.72 -21.81 L 31.72 0 L 35.89 0 L 35.89 -21.81 L 31.72 -21.81 Z M 48.45 -21.81 L 48.45 -9.39 L 42.93 -21.81 L 38.23 -21.81 L 38.23 0 L 42.41 0 L 42.41 -12.43 L 47.93 0 L 52.62 0 L 52.62 -21.81 L 48.45 -21.81 Z M 67.2 -21.81 L 54.96 -21.81 L 54.96 -17.64 L 58.99 -17.64 L 58.99 0 L 63.17 0 L 63.17 -17.64 L 67.2 -17.64 L 67.2 -21.81 Z" stroke-linecap="round" />
</g>
<g transform="matrix(1.12 0 0 1.12 891.39 468.92)"  >
<rect style="stroke: none; stroke-width: 1; stroke-dasharray: none; stroke-linecap: butt; stroke-dashoffset: 0; stroke-linejoin: miter; stroke-miterlimit: 4; fill: rgb(134,15,72); fill-rule: nonzero; opacity: 1;" vector-effect="non-scaling-stroke"  x="-22.21" y="-0.5" rx="0" ry="0" width="44.42" height="1" />
</g>
<g transform="matrix(1.12 0 0 1.12 1063.12 468.92)"  >
<rect style="stroke: none; stroke-width: 1; stroke-dasharray: none; stroke-linecap: butt; stroke-dashoffset: 0; stroke-linejoin: miter; stroke-miterlimit: 4; fill: rgb(134,15,72); fill-rule: nonzero; opacity: 1;" vector-effect="non-scaling-stroke"  x="-22.21" y="-0.5" rx="0" ry="0" width="44.42" height="1" />
</g>
<g transform="matrix(1.12 0 0 1.12 977.44 468.94)"  >
<path style="stroke: none; stroke-width: 1; stroke-dasharray: none; stroke-linecap: butt; stroke-dashoffset: 0; stroke-linejoin: miter; stroke-miterlimit: 4; fill: rgb(134,15,72); fill-rule: nonzero; opacity: 1;" vector-effect="non-scaling-stroke"  transform=" translate(-52.53, 3.94)" d="M 0.62 -3.94 C 0.62 -3.3 0.71 -2.72 0.88 -2.21 C 1.05 -1.71 1.29 -1.28 1.6 -0.93 C 1.91 -0.58 2.27 -0.32 2.69 -0.13 C 3.11 0.05 3.57 0.14 4.07 0.14 C 4.57 0.14 5.02 0.04 5.41 -0.16 C 5.8 -0.36 6.16 -0.64 6.47 -1 L 5.9 -1.61 C 5.65 -1.33 5.38 -1.11 5.09 -0.96 C 4.81 -0.81 4.48 -0.73 4.09 -0.73 C 3.72 -0.73 3.38 -0.81 3.08 -0.96 C 2.78 -1.11 2.52 -1.33 2.32 -1.61 C 2.11 -1.89 1.95 -2.23 1.83 -2.62 C 1.71 -3.02 1.66 -3.46 1.66 -3.96 C 1.66 -4.45 1.72 -4.89 1.84 -5.28 C 1.96 -5.67 2.12 -6.01 2.34 -6.28 C 2.56 -6.56 2.82 -6.77 3.12 -6.92 C 3.42 -7.07 3.76 -7.14 4.14 -7.14 C 4.48 -7.14 4.77 -7.07 5.02 -6.94 C 5.27 -6.81 5.5 -6.63 5.71 -6.41 L 6.28 -7.04 C 6.04 -7.3 5.75 -7.53 5.39 -7.72 C 5.03 -7.92 4.61 -8.02 4.13 -8.02 C 3.62 -8.02 3.16 -7.92 2.73 -7.73 C 2.3 -7.55 1.93 -7.28 1.62 -6.92 C 1.31 -6.57 1.06 -6.14 0.89 -5.64 C 0.71 -5.14 0.62 -4.57 0.62 -3.94 Z M 10.49 0.14 C 10.98 0.14 11.44 0.05 11.85 -0.14 C 12.26 -0.34 12.62 -0.61 12.92 -0.97 C 13.22 -1.32 13.45 -1.75 13.61 -2.26 C 13.78 -2.77 13.86 -3.34 13.86 -3.97 C 13.86 -4.6 13.78 -5.16 13.61 -5.66 C 13.45 -6.16 13.22 -6.58 12.92 -6.93 C 12.62 -7.28 12.26 -7.55 11.85 -7.73 C 11.44 -7.92 10.98 -8.02 10.49 -8.02 C 9.99 -8.02 9.54 -7.92 9.13 -7.74 C 8.71 -7.56 8.36 -7.29 8.06 -6.94 C 7.77 -6.59 7.54 -6.17 7.37 -5.67 C 7.21 -5.17 7.13 -4.6 7.13 -3.97 C 7.13 -3.34 7.21 -2.77 7.37 -2.26 C 7.54 -1.75 7.77 -1.32 8.06 -0.97 C 8.36 -0.61 8.71 -0.34 9.13 -0.14 C 9.54 0.05 9.99 0.14 10.49 0.14 Z M 10.49 -0.73 C 10.14 -0.73 9.82 -0.81 9.53 -0.96 C 9.25 -1.11 9.01 -1.33 8.8 -1.61 C 8.6 -1.9 8.44 -2.24 8.33 -2.63 C 8.22 -3.03 8.16 -3.48 8.16 -3.97 C 8.16 -4.46 8.22 -4.9 8.33 -5.29 C 8.44 -5.68 8.6 -6.02 8.8 -6.29 C 9.01 -6.56 9.25 -6.77 9.53 -6.92 C 9.82 -7.07 10.14 -7.14 10.49 -7.14 C 10.84 -7.14 11.16 -7.07 11.44 -6.92 C 11.73 -6.77 11.97 -6.56 12.17 -6.29 C 12.38 -6.02 12.54 -5.68 12.65 -5.29 C 12.76 -4.9 12.82 -4.46 12.82 -3.97 C 12.82 -3.48 12.76 -3.03 12.65 -2.63 C 12.54 -2.24 12.38 -1.9 12.17 -1.61 C 11.97 -1.33 11.73 -1.11 11.44 -0.96 C 11.16 -0.81 10.84 -0.73 10.49 -0.73 Z M 15.55 -7.87 L 15.55 0 L 16.5 0 L 16.5 -4.12 C 16.5 -4.53 16.49 -4.95 16.46 -5.36 C 16.43 -5.77 16.4 -6.18 16.37 -6.58 L 16.42 -6.58 L 17.27 -4.96 L 20.12 0 L 21.16 0 L 21.16 -7.87 L 20.21 -7.87 L 20.21 -3.8 C 20.21 -3.39 20.22 -2.97 20.25 -2.54 C 20.28 -2.11 20.3 -1.7 20.33 -1.3 L 20.28 -1.3 L 19.43 -2.93 L 16.58 -7.87 Z M 23.34 -1.72 L 22.74 -1.02 C 23.08 -0.66 23.49 -0.38 23.96 -0.17 C 24.44 0.04 24.95 0.14 25.5 0.14 C 25.92 0.14 26.29 0.09 26.62 -0.03 C 26.94 -0.15 27.22 -0.31 27.46 -0.51 C 27.69 -0.71 27.87 -0.95 27.99 -1.22 C 28.11 -1.5 28.18 -1.79 28.18 -2.1 C 28.18 -2.39 28.13 -2.64 28.05 -2.86 C 27.97 -3.08 27.85 -3.27 27.71 -3.44 C 27.56 -3.6 27.39 -3.75 27.19 -3.87 C 26.99 -3.99 26.78 -4.1 26.56 -4.2 L 25.44 -4.68 C 25.28 -4.74 25.12 -4.81 24.97 -4.89 C 24.82 -4.97 24.68 -5.05 24.55 -5.15 C 24.42 -5.25 24.32 -5.37 24.25 -5.5 C 24.17 -5.63 24.13 -5.8 24.13 -5.99 C 24.13 -6.35 24.27 -6.63 24.53 -6.83 C 24.8 -7.04 25.16 -7.14 25.6 -7.14 C 25.96 -7.14 26.29 -7.07 26.59 -6.94 C 26.88 -6.81 27.14 -6.63 27.38 -6.4 L 27.92 -7.04 C 27.64 -7.33 27.3 -7.57 26.9 -7.75 C 26.5 -7.93 26.07 -8.02 25.6 -8.02 C 25.24 -8.02 24.91 -7.96 24.61 -7.86 C 24.31 -7.76 24.05 -7.61 23.83 -7.42 C 23.61 -7.23 23.43 -7.01 23.31 -6.76 C 23.19 -6.5 23.12 -6.22 23.12 -5.93 C 23.12 -5.64 23.17 -5.39 23.27 -5.17 C 23.36 -4.95 23.49 -4.76 23.64 -4.6 C 23.79 -4.44 23.96 -4.3 24.16 -4.19 C 24.35 -4.08 24.54 -3.98 24.72 -3.9 L 25.85 -3.41 C 26.03 -3.32 26.2 -3.24 26.36 -3.16 C 26.52 -3.08 26.66 -2.99 26.78 -2.89 C 26.89 -2.79 26.99 -2.67 27.05 -2.53 C 27.12 -2.39 27.16 -2.22 27.16 -2.02 C 27.16 -1.63 27.01 -1.32 26.72 -1.09 C 26.44 -0.85 26.03 -0.73 25.51 -0.73 C 25.1 -0.73 24.71 -0.82 24.33 -1 C 23.95 -1.18 23.62 -1.42 23.34 -1.72 Z M 29.69 -7.87 L 29.69 -3.25 C 29.69 -2.62 29.76 -2.09 29.9 -1.66 C 30.05 -1.22 30.25 -0.87 30.5 -0.61 C 30.75 -0.34 31.05 -0.15 31.4 -0.03 C 31.75 0.09 32.12 0.14 32.52 0.14 C 32.92 0.14 33.29 0.09 33.64 -0.03 C 33.98 -0.15 34.28 -0.34 34.53 -0.61 C 34.78 -0.87 34.98 -1.22 35.12 -1.66 C 35.27 -2.09 35.34 -2.62 35.34 -3.25 L 35.34 -7.87 L 34.38 -7.87 L 34.38 -3.23 C 34.38 -2.76 34.33 -2.36 34.24 -2.04 C 34.14 -1.72 34.01 -1.46 33.84 -1.27 C 33.67 -1.08 33.48 -0.94 33.25 -0.86 C 33.03 -0.77 32.78 -0.73 32.52 -0.73 C 32.26 -0.73 32.02 -0.77 31.8 -0.86 C 31.58 -0.94 31.38 -1.08 31.22 -1.27 C 31.05 -1.46 30.92 -1.72 30.83 -2.04 C 30.73 -2.36 30.68 -2.76 30.68 -3.23 L 30.68 -7.87 Z M 37.46 -7.87 L 37.46 0 L 41.9 0 L 41.9 -0.85 L 38.46 -0.85 L 38.46 -7.87 Z M 43.49 -7.03 L 43.49 0 L 44.5 0 L 44.5 -7.03 L 46.87 -7.03 L 46.87 -7.87 L 41.11 -7.87 L 41.11 -7.03 Z M 48.29 -7.87 L 48.29 0 L 49.28 0 L 49.28 -7.87 Z M 51.44 -7.87 L 51.44 0 L 52.39 0 L 52.39 -4.12 C 52.39 -4.53 52.38 -4.95 52.35 -5.36 C 52.32 -5.77 52.29 -6.18 52.26 -6.58 L 52.31 -6.58 L 53.16 -4.96 L 56.02 0 L 57.05 0 L 57.05 -7.87 L 56.1 -7.87 L 56.1 -3.8 C 56.1 -3.39 56.11 -2.97 56.14 -2.54 C 56.17 -2.11 56.2 -1.7 56.22 -1.3 L 56.17 -1.3 L 55.32 -2.93 L 52.48 -7.87 Z M 58.75 -3.94 C 58.75 -3.3 58.84 -2.72 59.02 -2.21 C 59.19 -1.71 59.44 -1.28 59.75 -0.93 C 60.06 -0.58 60.43 -0.32 60.86 -0.13 C 61.3 0.05 61.77 0.14 62.29 0.14 C 62.82 0.14 63.29 0.06 63.71 -0.11 C 64.13 -0.29 64.47 -0.5 64.73 -0.77 L 64.73 -4.08 L 62.15 -4.08 L 62.15 -3.25 L 63.82 -3.25 L 63.82 -1.2 C 63.66 -1.06 63.45 -0.94 63.2 -0.86 C 62.95 -0.77 62.68 -0.73 62.4 -0.73 C 61.98 -0.73 61.6 -0.81 61.28 -0.96 C 60.95 -1.11 60.68 -1.33 60.46 -1.61 C 60.24 -1.89 60.07 -2.23 59.96 -2.62 C 59.84 -3.02 59.78 -3.46 59.78 -3.96 C 59.78 -4.45 59.85 -4.89 59.97 -5.28 C 60.09 -5.67 60.27 -6.01 60.49 -6.28 C 60.72 -6.56 60.99 -6.77 61.31 -6.92 C 61.63 -7.07 61.99 -7.14 62.39 -7.14 C 62.79 -7.14 63.12 -7.07 63.38 -6.93 C 63.64 -6.79 63.87 -6.62 64.07 -6.41 L 64.63 -7.04 C 64.4 -7.28 64.1 -7.51 63.74 -7.71 C 63.37 -7.91 62.92 -8.02 62.38 -8.02 C 61.85 -8.02 61.36 -7.92 60.92 -7.73 C 60.48 -7.55 60.1 -7.28 59.78 -6.92 C 59.45 -6.57 59.2 -6.14 59.02 -5.64 C 58.84 -5.14 58.75 -4.57 58.75 -3.94 Z M 68.58 -3.94 C 68.58 -3.3 68.67 -2.72 68.84 -2.21 C 69.02 -1.71 69.26 -1.28 69.58 -0.93 C 69.89 -0.58 70.26 -0.32 70.69 -0.13 C 71.12 0.05 71.6 0.14 72.12 0.14 C 72.65 0.14 73.12 0.06 73.54 -0.11 C 73.96 -0.29 74.3 -0.5 74.56 -0.77 L 74.56 -4.08 L 71.98 -4.08 L 71.98 -3.25 L 73.64 -3.25 L 73.64 -1.2 C 73.48 -1.06 73.28 -0.94 73.03 -0.86 C 72.77 -0.77 72.51 -0.73 72.23 -0.73 C 71.8 -0.73 71.43 -0.81 71.11 -0.96 C 70.78 -1.11 70.51 -1.33 70.29 -1.61 C 70.07 -1.89 69.9 -2.23 69.79 -2.62 C 69.67 -3.02 69.61 -3.46 69.61 -3.96 C 69.61 -4.45 69.67 -4.89 69.8 -5.28 C 69.92 -5.67 70.1 -6.01 70.32 -6.28 C 70.54 -6.56 70.82 -6.77 71.14 -6.92 C 71.46 -7.07 71.82 -7.14 72.22 -7.14 C 72.62 -7.14 72.95 -7.07 73.21 -6.93 C 73.47 -6.79 73.7 -6.62 73.9 -6.41 L 74.46 -7.04 C 74.23 -7.28 73.93 -7.51 73.57 -7.71 C 73.2 -7.91 72.75 -8.02 72.2 -8.02 C 71.68 -8.02 71.19 -7.92 70.75 -7.73 C 70.31 -7.55 69.93 -7.28 69.61 -6.92 C 69.28 -6.57 69.03 -6.14 68.85 -5.64 C 68.67 -5.14 68.58 -4.57 68.58 -3.94 Z M 77.44 -4.14 L 77.44 -7.07 L 78.76 -7.07 C 79.37 -7.07 79.84 -6.96 80.17 -6.76 C 80.5 -6.55 80.66 -6.18 80.66 -5.66 C 80.66 -5.15 80.5 -4.77 80.17 -4.52 C 79.84 -4.27 79.37 -4.14 78.76 -4.14 Z M 80.76 0 L 81.89 0 L 79.9 -3.43 C 80.43 -3.57 80.86 -3.82 81.18 -4.19 C 81.5 -4.56 81.66 -5.05 81.66 -5.66 C 81.66 -6.07 81.59 -6.42 81.46 -6.7 C 81.32 -6.98 81.13 -7.2 80.89 -7.38 C 80.64 -7.56 80.35 -7.68 80.01 -7.76 C 79.67 -7.83 79.3 -7.87 78.9 -7.87 L 76.44 -7.87 L 76.44 0 L 77.44 0 L 77.44 -3.32 L 78.86 -3.32 Z M 86.32 0.14 C 86.81 0.14 87.27 0.05 87.68 -0.14 C 88.09 -0.34 88.45 -0.61 88.75 -0.97 C 89.05 -1.32 89.28 -1.75 89.44 -2.26 C 89.61 -2.77 89.69 -3.34 89.69 -3.97 C 89.69 -4.6 89.61 -5.16 89.44 -5.66 C 89.28 -6.16 89.05 -6.58 88.75 -6.93 C 88.45 -7.28 88.09 -7.55 87.68 -7.73 C 87.27 -7.92 86.81 -8.02 86.32 -8.02 C 85.82 -8.02 85.37 -7.92 84.95 -7.74 C 84.54 -7.56 84.19 -7.29 83.89 -6.94 C 83.6 -6.59 83.37 -6.17 83.2 -5.67 C 83.04 -5.17 82.96 -4.6 82.96 -3.97 C 82.96 -3.34 83.04 -2.77 83.2 -2.26 C 83.37 -1.75 83.6 -1.32 83.89 -0.97 C 84.19 -0.61 84.54 -0.34 84.95 -0.14 C 85.37 0.05 85.82 0.14 86.32 0.14 Z M 86.32 -0.73 C 85.96 -0.73 85.65 -0.81 85.36 -0.96 C 85.08 -1.11 84.83 -1.33 84.63 -1.61 C 84.43 -1.9 84.27 -2.24 84.16 -2.63 C 84.04 -3.03 83.99 -3.48 83.99 -3.97 C 83.99 -4.46 84.04 -4.9 84.16 -5.29 C 84.27 -5.68 84.43 -6.02 84.63 -6.29 C 84.83 -6.56 85.08 -6.77 85.36 -6.92 C 85.65 -7.07 85.96 -7.14 86.32 -7.14 C 86.67 -7.14 86.99 -7.07 87.27 -6.92 C 87.55 -6.77 87.8 -6.56 88 -6.29 C 88.21 -6.02 88.36 -5.68 88.48 -5.29 C 88.59 -4.9 88.64 -4.46 88.64 -3.97 C 88.64 -3.48 88.59 -3.03 88.48 -2.63 C 88.36 -2.24 88.21 -1.9 88 -1.61 C 87.8 -1.33 87.55 -1.11 87.27 -0.96 C 86.99 -0.81 86.67 -0.73 86.32 -0.73 Z M 91.34 -7.87 L 91.34 -3.25 C 91.34 -2.62 91.42 -2.09 91.56 -1.66 C 91.7 -1.22 91.9 -0.87 92.15 -0.61 C 92.41 -0.34 92.71 -0.15 93.05 -0.03 C 93.4 0.09 93.78 0.14 94.18 0.14 C 94.58 0.14 94.95 0.09 95.29 -0.03 C 95.64 -0.15 95.93 -0.34 96.19 -0.61 C 96.44 -0.87 96.64 -1.22 96.78 -1.66 C 96.92 -2.09 97 -2.62 97 -3.25 L 97 -7.87 L 96.04 -7.87 L 96.04 -3.23 C 96.04 -2.76 95.99 -2.36 95.89 -2.04 C 95.8 -1.72 95.66 -1.46 95.5 -1.27 C 95.33 -1.08 95.13 -0.94 94.91 -0.86 C 94.68 -0.77 94.44 -0.73 94.18 -0.73 C 93.92 -0.73 93.68 -0.77 93.46 -0.86 C 93.23 -0.94 93.04 -1.08 92.87 -1.27 C 92.71 -1.46 92.58 -1.72 92.48 -2.04 C 92.39 -2.36 92.34 -2.76 92.34 -3.23 L 92.34 -7.87 Z M 99.12 -7.87 L 99.12 0 L 100.12 0 L 100.12 -3.12 L 101.53 -3.12 C 101.96 -3.12 102.36 -3.17 102.71 -3.27 C 103.07 -3.37 103.38 -3.52 103.63 -3.72 C 103.89 -3.92 104.09 -4.17 104.23 -4.48 C 104.37 -4.78 104.44 -5.14 104.44 -5.56 C 104.44 -5.99 104.37 -6.35 104.23 -6.65 C 104.09 -6.94 103.89 -7.18 103.64 -7.36 C 103.39 -7.54 103.08 -7.67 102.72 -7.75 C 102.36 -7.83 101.96 -7.87 101.53 -7.87 Z M 101.41 -3.94 L 100.12 -3.94 L 100.12 -7.07 L 101.41 -7.07 C 102.09 -7.07 102.6 -6.96 102.94 -6.74 C 103.27 -6.52 103.44 -6.12 103.44 -5.56 C 103.44 -5 103.27 -4.59 102.94 -4.33 C 102.61 -4.07 102.1 -3.94 101.41 -3.94 Z" stroke-linecap="round" />
</g>
</svg>