<svg version="1.0" xmlns="http://www.w3.org/2000/svg" xmlns:xlink="http://www.w3.org/1999/xlink" x="0" y="0"
  width="2400" height="1800" viewBox="0 0 340 250" preserveAspectRatio="xMidYMid meet"
  color-interpolation-filters="sRGB">
  <defs>
    <linearGradient id="92" x1="0%" y1="0%" x2="100%" y2="0%">
      <stop offset="0%" stop-color="#fa71cd" />
      <stop offset="100%" stop-color="#9b59b6" />
    </linearGradient>
    <linearGradient id="93" x1="0%" y1="0%" x2="100%" y2="0%">
      <stop offset="0%" stop-color="#f9d423" />
      <stop offset="100%" stop-color="#f83600" />
    </linearGradient>
    <linearGradient id="94" x1="0%" y1="0%" x2="100%" y2="0%">
      <stop offset="0%" stop-color="#0064d2" />
      <stop offset="100%" stop-color="#1cb0f6" />
    </linearGradient>
    <linearGradient id="95" x1="0%" y1="0%" x2="100%" y2="0%">
      <stop offset="0%" stop-color="#f00978" />
      <stop offset="100%" stop-color="#3f51b1" />
    </linearGradient>
    <linearGradient id="96" x1="0%" y1="0%" x2="100%" y2="0%">
      <stop offset="0%" stop-color="#7873f5" />
      <stop offset="100%" stop-color="#ec77ab" />
    </linearGradient>
    <linearGradient id="97" x1="0%" y1="0%" x2="100%" y2="0%">
      <stop offset="0%" stop-color="#f9d423" />
      <stop offset="100%" stop-color="#e14fad" />
    </linearGradient>
    <linearGradient id="98" x1="0%" y1="0%" x2="100%" y2="0%">
      <stop offset="0%" stop-color="#009efd" />
      <stop offset="100%" stop-color="#2af598" />
    </linearGradient>
    <linearGradient id="99" x1="0%" y1="0%" x2="100%" y2="0%">
      <stop offset="0%" stop-color="#ffcc00" />
      <stop offset="100%" stop-color="#00b140" />
    </linearGradient>
    <linearGradient id="100" x1="0%" y1="0%" x2="100%" y2="0%">
      <stop offset="0%" stop-color="#d51007" />
      <stop offset="100%" stop-color="#ff8177" />
    </linearGradient>
    <linearGradient id="102" x1="0%" y1="0%" x2="100%" y2="0%">
      <stop offset="0%" stop-color="#a2b6df" />
      <stop offset="100%" stop-color="#0c3483" />
    </linearGradient>
    <linearGradient id="103" x1="0%" y1="0%" x2="100%" y2="0%">
      <stop offset="0%" stop-color="#7ac5d8" />
      <stop offset="100%" stop-color="#eea2a2" />
    </linearGradient>
    <linearGradient id="104" x1="0%" y1="0%" x2="100%" y2="0%">
      <stop offset="0%" stop-color="#00ecbc" />
      <stop offset="100%" stop-color="#007adf" />
    </linearGradient>
    <linearGradient id="105" x1="0%" y1="0%" x2="100%" y2="0%">
      <stop offset="0%" stop-color="#b88746" />
      <stop offset="100%" stop-color="#fdf5a6" />
    </linearGradient>
  </defs>
  <g fill="#393458" class="iconblsvg-g iconsvg" transform="translate(65.66594696044922,104.83364295959473)">
    <g class="tp-name" transform="translate(0,0)">
      <g transform="translate(0, 2.1833581924438477)">
        <g transform="scale(1)">
          <path
            d="M12.24-21.81L0-21.81 0-17.64 4.02-17.64 4.02 0 8.2 0 8.2-17.64 12.24-17.64 12.24-21.81ZM25.67-21.81L14.58-21.81 14.58 0 25.67 0 25.67-4.18 18.76-4.18 18.76-8.83 24.28-8.83 24.28-12.99 18.76-12.99 18.76-17.64 25.67-17.64 25.67-21.81ZM37.36-17.64L37.36-12.46 32.18-12.46 32.18-17.64 37.36-17.64ZM38.33-21.81L28-21.81 28 0 32.18 0 32.18-8.3 37.36-8.3 37.36 0 41.52 0 41.52-9.76 40.38-10.87 41.52-12.01 41.52-18.6 38.33-21.81ZM53.22-17.64L53.22-12.46 48.04-12.46 48.04-17.64 53.22-17.64ZM54.18-21.81L43.86-21.81 43.86 0 48.04 0 48.04-8.3 53.22-8.3 53.22 0 57.38 0 57.38-9.76 56.24-10.87 57.38-12.01 57.38-18.6 54.18-21.81ZM67.62-13.85L69.14-7.89 66.02-7.89 67.62-13.85ZM63.9 0L64.9-3.71 70.2-3.71 71.15 0 75.31 0 69.78-21.81 65.6-21.81 59.72 0 63.9 0ZM87.19-21.81L80.07-21.81 76.87-18.6 76.87-3.2 80.07 0 87.19 0 90.39-3.2 90.39-7.44 86.23-7.44 86.23-4.18 81.05-4.18 81.05-17.64 86.23-17.64 86.23-14.38 90.39-14.38 90.39-18.6 87.19-21.81ZM103.81-21.81L92.73-21.81 92.73 0 103.81 0 103.81-4.18 96.91-4.18 96.91-8.83 102.43-8.83 102.43-12.99 96.91-12.99 96.91-17.64 103.81-17.64 103.81-21.81Z"
            transform="translate(0, 21.809999465942383)" />
        </g>
      </g>
      <g transform="translate(106.80999755859375, 0)">
        <g>
          <g class="imagesvg">
            <g>
              <rect fill="#393458" fill-opacity="0" stroke-width="2" x="0" y="0" width="31.658119334719338"
                height="26.176715176715177" class="image-rect" /> <svg x="0" y="0" width="31.658119334719338"
                height="26.176715176715177" filtersec="colorsb4091061421" class="image-svg-svg primary"
                style="overflow: visible;"><svg xmlns="http://www.w3.org/2000/svg" viewBox="0 0 120.94000244140625 100">
                  <path fill="#393458" d="M33.62 99.96l10.04-16.6-16.81-27.79L0 99.96h33.62z" />
                  <path fill="#860f48" d="M79.66 87.28h-.01l7.68 12.68h33.61L60.47 0 43.66 27.79l36 59.49z" />
                  <path fill="#393458" d="M53.3 100h14.34l-7.17-11.85L53.3 100z" />
                </svg></svg>
            </g>
          </g>
        </g>
      </g>
      <g fill="#860f48" transform="translate(141.4681167602539, 2.1833581924438477)">
        <g transform="scale(1)">
          <path
            d="M9.34-17.64L9.34-12.46 4.18-12.46 4.18-17.64 9.34-17.64ZM10.32-21.81L0-21.81 0 0 4.18 0 4.18-8.3 10.32-8.3 13.52-11.49 13.52-18.6 10.32-21.81ZM25.21-17.64L25.21-4.18 20.04-4.18 20.04-17.64 25.21-17.64ZM26.18-21.81L19.05-21.81 15.86-18.6 15.86-3.2 19.05 0 26.18 0 29.38-3.2 29.38-18.6 26.18-21.81ZM31.72-21.81L31.72 0 35.89 0 35.89-21.81 31.72-21.81ZM48.45-21.81L48.45-9.39 42.93-21.81 38.23-21.81 38.23 0 42.41 0 42.41-12.43 47.93 0 52.62 0 52.62-21.81 48.45-21.81ZM67.2-21.81L54.96-21.81 54.96-17.64 58.99-17.64 58.99 0 63.17 0 63.17-17.64 67.2-17.64 67.2-21.81Z"
            transform="translate(0, 21.809999465942383)" />
        </g>
      </g>
    </g>
    <g fill-rule="" class="tp-slogan iconsvg-slogansvg" fill="#860f48" transform="translate(5,32.17671585083008)">
      <rect x="0" height="1" y="3.580000400543213" width="44.42405319213867" />
      <rect height="1" y="3.580000400543213" width="44.42405319213867" x="154.2440528869629" />
      <g transform="translate(47.42405319213867,0)">
        <g transform="scale(1)">
          <path
            d="M0.62-3.94C0.62-3.30 0.71-2.72 0.88-2.21C1.05-1.71 1.29-1.28 1.60-0.93C1.91-0.58 2.27-0.32 2.69-0.13C3.11 0.05 3.57 0.14 4.07 0.14C4.57 0.14 5.02 0.04 5.41-0.16C5.80-0.36 6.16-0.64 6.47-1.00L5.90-1.61C5.65-1.33 5.38-1.11 5.09-0.96C4.81-0.81 4.48-0.73 4.09-0.73C3.72-0.73 3.38-0.81 3.08-0.96C2.78-1.11 2.52-1.33 2.32-1.61C2.11-1.89 1.95-2.23 1.83-2.62C1.71-3.02 1.66-3.46 1.66-3.96C1.66-4.45 1.72-4.89 1.84-5.28C1.96-5.67 2.12-6.01 2.34-6.28C2.56-6.56 2.82-6.77 3.12-6.92C3.42-7.07 3.76-7.14 4.14-7.14C4.48-7.14 4.77-7.07 5.02-6.94C5.27-6.81 5.50-6.63 5.71-6.41L6.28-7.04C6.04-7.30 5.75-7.53 5.39-7.72C5.03-7.92 4.61-8.02 4.13-8.02C3.62-8.02 3.16-7.92 2.73-7.73C2.30-7.55 1.93-7.28 1.62-6.92C1.31-6.57 1.06-6.14 0.89-5.64C0.71-5.14 0.62-4.57 0.62-3.94ZM10.49 0.14C10.98 0.14 11.44 0.05 11.85-0.14C12.26-0.34 12.62-0.61 12.92-0.97C13.22-1.32 13.45-1.75 13.61-2.26C13.78-2.77 13.86-3.34 13.86-3.97C13.86-4.60 13.78-5.16 13.61-5.66C13.45-6.16 13.22-6.58 12.92-6.93C12.62-7.28 12.26-7.55 11.85-7.73C11.44-7.92 10.98-8.02 10.49-8.02C9.99-8.02 9.54-7.92 9.13-7.74C8.71-7.56 8.36-7.29 8.06-6.94C7.77-6.59 7.54-6.17 7.37-5.67C7.21-5.17 7.13-4.60 7.13-3.97C7.13-3.34 7.21-2.77 7.37-2.26C7.54-1.75 7.77-1.32 8.06-0.97C8.36-0.61 8.71-0.34 9.13-0.14C9.54 0.05 9.99 0.14 10.49 0.14ZM10.49-0.73C10.14-0.73 9.82-0.81 9.53-0.96C9.25-1.11 9.01-1.33 8.80-1.61C8.60-1.90 8.44-2.24 8.33-2.63C8.22-3.03 8.16-3.48 8.16-3.97C8.16-4.46 8.22-4.90 8.33-5.29C8.44-5.68 8.60-6.02 8.80-6.29C9.01-6.56 9.25-6.77 9.53-6.92C9.82-7.07 10.14-7.14 10.49-7.14C10.84-7.14 11.16-7.07 11.44-6.92C11.73-6.77 11.97-6.56 12.17-6.29C12.38-6.02 12.54-5.68 12.65-5.29C12.76-4.90 12.82-4.46 12.82-3.97C12.82-3.48 12.76-3.03 12.65-2.63C12.54-2.24 12.38-1.90 12.17-1.61C11.97-1.33 11.73-1.11 11.44-0.96C11.16-0.81 10.84-0.73 10.49-0.73ZM15.55-7.87L15.55 0L16.50 0L16.50-4.12C16.50-4.53 16.49-4.95 16.46-5.36C16.43-5.77 16.40-6.18 16.37-6.58L16.42-6.58L17.27-4.96L20.12 0L21.16 0L21.16-7.87L20.21-7.87L20.21-3.80C20.21-3.39 20.22-2.97 20.25-2.54C20.28-2.11 20.30-1.70 20.33-1.30L20.28-1.30L19.43-2.93L16.58-7.87ZM23.34-1.72L22.74-1.02C23.08-0.66 23.49-0.38 23.96-0.17C24.44 0.04 24.95 0.14 25.50 0.14C25.92 0.14 26.29 0.09 26.62-0.03C26.94-0.15 27.22-0.31 27.46-0.51C27.69-0.71 27.87-0.95 27.99-1.22C28.11-1.50 28.18-1.79 28.18-2.10C28.18-2.39 28.13-2.64 28.05-2.86C27.97-3.08 27.85-3.27 27.71-3.44C27.56-3.60 27.39-3.75 27.19-3.87C26.99-3.99 26.78-4.10 26.56-4.20L25.44-4.68C25.28-4.74 25.12-4.81 24.97-4.89C24.82-4.97 24.68-5.05 24.55-5.15C24.42-5.25 24.32-5.37 24.25-5.50C24.17-5.63 24.13-5.80 24.13-5.99C24.13-6.35 24.27-6.63 24.53-6.83C24.80-7.04 25.16-7.14 25.60-7.14C25.96-7.14 26.29-7.07 26.59-6.94C26.88-6.81 27.14-6.63 27.38-6.40L27.92-7.04C27.64-7.33 27.30-7.57 26.90-7.75C26.50-7.93 26.07-8.02 25.60-8.02C25.24-8.02 24.91-7.96 24.61-7.86C24.31-7.76 24.05-7.61 23.83-7.42C23.61-7.23 23.43-7.01 23.31-6.76C23.19-6.50 23.12-6.22 23.12-5.93C23.12-5.64 23.17-5.39 23.27-5.17C23.36-4.95 23.49-4.76 23.64-4.60C23.79-4.44 23.96-4.30 24.16-4.19C24.35-4.08 24.54-3.98 24.72-3.90L25.85-3.41C26.03-3.32 26.20-3.24 26.36-3.16C26.52-3.08 26.66-2.99 26.78-2.89C26.89-2.79 26.99-2.67 27.05-2.53C27.12-2.39 27.16-2.22 27.16-2.02C27.16-1.63 27.01-1.32 26.72-1.09C26.44-0.85 26.03-0.73 25.51-0.73C25.10-0.73 24.71-0.82 24.33-1.00C23.95-1.18 23.62-1.42 23.34-1.72ZM29.69-7.87L29.69-3.25C29.69-2.62 29.76-2.09 29.90-1.66C30.05-1.22 30.25-0.87 30.50-0.61C30.75-0.34 31.05-0.15 31.40-0.03C31.75 0.09 32.12 0.14 32.52 0.14C32.92 0.14 33.29 0.09 33.64-0.03C33.98-0.15 34.28-0.34 34.53-0.61C34.78-0.87 34.98-1.22 35.12-1.66C35.27-2.09 35.34-2.62 35.34-3.25L35.34-7.87L34.38-7.87L34.38-3.23C34.38-2.76 34.33-2.36 34.24-2.04C34.14-1.72 34.01-1.46 33.84-1.27C33.67-1.08 33.48-0.94 33.25-0.86C33.03-0.77 32.78-0.73 32.52-0.73C32.26-0.73 32.02-0.77 31.80-0.86C31.58-0.94 31.38-1.08 31.22-1.27C31.05-1.46 30.92-1.72 30.83-2.04C30.73-2.36 30.68-2.76 30.68-3.23L30.68-7.87ZM37.46-7.87L37.46 0L41.90 0L41.90-0.85L38.46-0.85L38.46-7.87ZM43.49-7.03L43.49 0L44.50 0L44.50-7.03L46.87-7.03L46.87-7.87L41.11-7.87L41.11-7.03ZM48.29-7.87L48.29 0L49.28 0L49.28-7.87ZM51.44-7.87L51.44 0L52.39 0L52.39-4.12C52.39-4.53 52.38-4.95 52.35-5.36C52.32-5.77 52.29-6.18 52.26-6.58L52.31-6.58L53.16-4.96L56.02 0L57.05 0L57.05-7.87L56.10-7.87L56.10-3.80C56.10-3.39 56.11-2.97 56.14-2.54C56.17-2.11 56.20-1.70 56.22-1.30L56.17-1.30L55.32-2.93L52.48-7.87ZM58.75-3.94C58.75-3.30 58.84-2.72 59.02-2.21C59.19-1.71 59.44-1.28 59.75-0.93C60.06-0.58 60.43-0.32 60.86-0.13C61.30 0.05 61.77 0.14 62.29 0.14C62.82 0.14 63.29 0.06 63.71-0.11C64.13-0.29 64.47-0.50 64.73-0.77L64.73-4.08L62.15-4.08L62.15-3.25L63.82-3.25L63.82-1.20C63.66-1.06 63.45-0.94 63.20-0.86C62.95-0.77 62.68-0.73 62.40-0.73C61.98-0.73 61.60-0.81 61.28-0.96C60.95-1.11 60.68-1.33 60.46-1.61C60.24-1.89 60.07-2.23 59.96-2.62C59.84-3.02 59.78-3.46 59.78-3.96C59.78-4.45 59.85-4.89 59.97-5.28C60.09-5.67 60.27-6.01 60.49-6.28C60.72-6.56 60.99-6.77 61.31-6.92C61.63-7.07 61.99-7.14 62.39-7.14C62.79-7.14 63.12-7.07 63.38-6.93C63.64-6.79 63.87-6.62 64.07-6.41L64.63-7.04C64.40-7.28 64.10-7.51 63.74-7.71C63.37-7.91 62.92-8.02 62.38-8.02C61.85-8.02 61.36-7.92 60.92-7.73C60.48-7.55 60.10-7.28 59.78-6.92C59.45-6.57 59.20-6.14 59.02-5.64C58.84-5.14 58.75-4.57 58.75-3.94ZM68.58-3.94C68.58-3.30 68.67-2.72 68.84-2.21C69.02-1.71 69.26-1.28 69.58-0.93C69.89-0.58 70.26-0.32 70.69-0.13C71.12 0.05 71.60 0.14 72.12 0.14C72.65 0.14 73.12 0.06 73.54-0.11C73.96-0.29 74.30-0.50 74.56-0.77L74.56-4.08L71.98-4.08L71.98-3.25L73.64-3.25L73.64-1.20C73.48-1.06 73.28-0.94 73.03-0.86C72.77-0.77 72.51-0.73 72.23-0.73C71.80-0.73 71.43-0.81 71.11-0.96C70.78-1.11 70.51-1.33 70.29-1.61C70.07-1.89 69.90-2.23 69.79-2.62C69.67-3.02 69.61-3.46 69.61-3.96C69.61-4.45 69.67-4.89 69.80-5.28C69.92-5.67 70.10-6.01 70.32-6.28C70.54-6.56 70.82-6.77 71.14-6.92C71.46-7.07 71.82-7.14 72.22-7.14C72.62-7.14 72.95-7.07 73.21-6.93C73.47-6.79 73.70-6.62 73.90-6.41L74.46-7.04C74.23-7.28 73.93-7.51 73.57-7.71C73.20-7.91 72.75-8.02 72.20-8.02C71.68-8.02 71.19-7.92 70.75-7.73C70.31-7.55 69.93-7.28 69.61-6.92C69.28-6.57 69.03-6.14 68.85-5.64C68.67-5.14 68.58-4.57 68.58-3.94ZM77.44-4.14L77.44-7.07L78.76-7.07C79.37-7.07 79.84-6.96 80.17-6.76C80.50-6.55 80.66-6.18 80.66-5.66C80.66-5.15 80.50-4.77 80.17-4.52C79.84-4.27 79.37-4.14 78.76-4.14ZM80.76 0L81.89 0L79.90-3.43C80.43-3.57 80.86-3.82 81.18-4.19C81.50-4.56 81.66-5.05 81.66-5.66C81.66-6.07 81.59-6.42 81.46-6.70C81.32-6.98 81.13-7.20 80.89-7.38C80.64-7.56 80.35-7.68 80.01-7.76C79.67-7.83 79.30-7.87 78.90-7.87L76.44-7.87L76.44 0L77.44 0L77.44-3.32L78.86-3.32ZM86.32 0.14C86.81 0.14 87.27 0.05 87.68-0.14C88.09-0.34 88.45-0.61 88.75-0.97C89.05-1.32 89.28-1.75 89.44-2.26C89.61-2.77 89.69-3.34 89.69-3.97C89.69-4.60 89.61-5.16 89.44-5.66C89.28-6.16 89.05-6.58 88.75-6.93C88.45-7.28 88.09-7.55 87.68-7.73C87.27-7.92 86.81-8.02 86.32-8.02C85.82-8.02 85.37-7.92 84.95-7.74C84.54-7.56 84.19-7.29 83.89-6.94C83.60-6.59 83.37-6.17 83.20-5.67C83.04-5.17 82.96-4.60 82.96-3.97C82.96-3.34 83.04-2.77 83.20-2.26C83.37-1.75 83.60-1.32 83.89-0.97C84.19-0.61 84.54-0.34 84.95-0.14C85.37 0.05 85.82 0.14 86.32 0.14ZM86.32-0.73C85.96-0.73 85.65-0.81 85.36-0.96C85.08-1.11 84.83-1.33 84.63-1.61C84.43-1.90 84.27-2.24 84.16-2.63C84.04-3.03 83.99-3.48 83.99-3.97C83.99-4.46 84.04-4.90 84.16-5.29C84.27-5.68 84.43-6.02 84.63-6.29C84.83-6.56 85.08-6.77 85.36-6.92C85.65-7.07 85.96-7.14 86.32-7.14C86.67-7.14 86.99-7.07 87.27-6.92C87.55-6.77 87.80-6.56 88.00-6.29C88.21-6.02 88.36-5.68 88.48-5.29C88.59-4.90 88.64-4.46 88.64-3.97C88.64-3.48 88.59-3.03 88.48-2.63C88.36-2.24 88.21-1.90 88.00-1.61C87.80-1.33 87.55-1.11 87.27-0.96C86.99-0.81 86.67-0.73 86.32-0.73ZM91.34-7.87L91.34-3.25C91.34-2.62 91.42-2.09 91.56-1.66C91.70-1.22 91.90-0.87 92.15-0.61C92.41-0.34 92.71-0.15 93.05-0.03C93.40 0.09 93.78 0.14 94.18 0.14C94.58 0.14 94.95 0.09 95.29-0.03C95.64-0.15 95.93-0.34 96.19-0.61C96.44-0.87 96.64-1.22 96.78-1.66C96.92-2.09 97.00-2.62 97.00-3.25L97.00-7.87L96.04-7.87L96.04-3.23C96.04-2.76 95.99-2.36 95.89-2.04C95.80-1.72 95.66-1.46 95.50-1.27C95.33-1.08 95.13-0.94 94.91-0.86C94.68-0.77 94.44-0.73 94.18-0.73C93.92-0.73 93.68-0.77 93.46-0.86C93.23-0.94 93.04-1.08 92.87-1.27C92.71-1.46 92.58-1.72 92.48-2.04C92.39-2.36 92.34-2.76 92.34-3.23L92.34-7.87ZM99.12-7.87L99.12 0L100.12 0L100.12-3.12L101.53-3.12C101.96-3.12 102.36-3.17 102.71-3.27C103.07-3.37 103.38-3.52 103.63-3.72C103.89-3.92 104.09-4.17 104.23-4.48C104.37-4.78 104.44-5.14 104.44-5.56C104.44-5.99 104.37-6.35 104.23-6.65C104.09-6.94 103.89-7.18 103.64-7.36C103.39-7.54 103.08-7.67 102.72-7.75C102.36-7.83 101.96-7.87 101.53-7.87ZM101.41-3.94L100.12-3.94L100.12-7.07L101.41-7.07C102.09-7.07 102.60-6.96 102.94-6.74C103.27-6.52 103.44-6.12 103.44-5.56C103.44-5.00 103.27-4.59 102.94-4.33C102.61-4.07 102.10-3.94 101.41-3.94Z"
            transform="translate(-0.624, 8.016)" />
        </g>
      </g>
    </g>
  </g>
  <defs v-gra="od" />
</svg>